<svg width="96" height="96" viewBox="0 0 96 96" fill="none" xmlns="http://www.w3.org/2000/svg">
  <rect x="2" y="2" width="92" height="92" rx="24" fill="url(#bg)" stroke="rgba(255,255,255,0.16)"/>
  <path d="M46 16L56 22L54 30L63 38L58 48L64 58L57 71L44 78L35 68L37 58L29 49L33 36L40 29L39 21L46 16Z" fill="url(#shape)" stroke="#F8FAFC" stroke-width="2.8" stroke-linejoin="round"/>
  <path d="M38 62C42.4 58.2 47.2 57 54 56.5" stroke="#F59E0B" stroke-width="3" stroke-linecap="round"/>
  <path d="M36 44C40.5 45.4 44.1 45.2 49 43" stroke="#22C55E" stroke-width="3" stroke-linecap="round"/>
  <circle cx="58" cy="28" r="4" fill="#60A5FA"/>
  <defs>
    <linearGradient id="bg" x1="12" y1="10" x2="84" y2="88" gradientUnits="userSpaceOnUse">
      <stop stop-color="#18311D"/>
      <stop offset="1" stop-color="#0F1D12"/>
    </linearGradient>
    <linearGradient id="shape" x1="30" y1="18" x2="64" y2="78" gradientUnits="userSpaceOnUse">
      <stop stop-color="#1F8A4C"/>
      <stop offset="1" stop-color="#164C2F"/>
    </linearGradient>
  </defs>
</svg>
